#!OML:ASF F:\VICON\USERDATA\INSTALL\rory3\rory3.ASF
:FULLY-SPECIFIED
:DEGREES
1356
root -4.69726 17.2112 -3.83025 4.34286 -5.61439 0.411635
lowerback 14.6735 -1.12822 -0.952185
upperback 2.72647 -1.44103 3.39958
thorax -5.22058 -0.676299 4.41143
lowerneck -21.4649 -2.46007 -9.89018
upperneck 19.8359 -1.82409 6.7364
head 10.0127 -0.801094 3.76006
rclavicle -7.15625e-015 1.66979e-014
rhumerus -28.2132 -1.88702 -76.8952
rradius 111.505
rwrist -3.28948
rhand -24.3348 23.025
rfingers 7.12502
rthumb 2.15406 -6.94385
lclavicle -7.15625e-015 1.66979e-014
lhumerus 3.47479 -4.2358 80.6294
lradius 121.193
lwrist -0.694435
lhand -9.66025 5.36546
lfingers 7.12502
lthumb 16.3108 34.6995
rfemur -18.6113 -2.00522 10.1894
rtibia 61.1877
rfoot 0.806605 9.73705
rtoes -3.69281
lfemur -30.1597 7.6725 -6.41904
ltibia 46.8705
lfoot -5.96289 -2.12285
ltoes -26.0597
1357
root -4.68826 17.1191 -3.80428 4.45492 -4.82937 0.179067
lowerback 14.221 -1.04738 -0.985335
upperback 2.74327 -1.35803 3.12224
thorax -4.96829 -0.640523 4.10229
lowerneck -21.4285 -2.66392 -10.3374
upperneck 19.8425 -2.05625 7.11295
head 10.04 -0.89851 3.937
rclavicle 2.78299e-014 -1.74931e-014
rhumerus -28.1068 -2.02046 -77.1228
rradius 111.314
rwrist -3.1945
rhand -24.3094 23.0237
rfingers 7.12502
rthumb 2.17859 -6.94492
lclavicle 2.78299e-014 -1.74931e-014
lhumerus 3.99315 -4.0548 80.3942
lradius 120.982
lwrist -0.973412
lhand -9.84763 5.09042
lfingers 7.12502
lthumb 16.1304 34.4392
rfemur -16.3944 -1.86777 11.3563
rtibia 59.2991
rfoot -2.96672 9.99481
rtoes 1.94308
lfemur -31.1997 7.40711 -5.48676
ltibia 46.204
lfoot -4.72518 -2.1114
ltoes -23.3071
1358
root -4.66911 17.0186 -3.77893 4.60988 -4.12322 -0.0805456
lowerback 13.7741 -0.952359 -0.865845
upperback 2.68651 -1.23203 2.82958
thorax -4.80264 -0.583062 3.68749
lowerneck -21.322 -2.85323 -10.8602
upperneck 19.8963 -2.25255 7.48553
head 10.0709 -0.98781 4.13176
rclavicle -3.97569e-016 -2.06736e-014
rhumerus -28.1362 -2.06652 -77.2987
rradius 111.132
rwrist -3.08604
rhand -24.4896 23.1955
rfingers 7.12502
rthumb 2.0045 -6.77487
lclavicle -3.97569e-016 -2.06736e-014
lhumerus 4.53567 -3.9708 80.1515
lradius 120.712
lwrist -1.7409
lhand -10.2631 5.04574
lfingers 7.12502
lthumb 15.7303 34.4264
rfemur -14.4207 -1.77761 12.5007
rtibia 57.4686
rfoot -10.8912 9.39925
rtoes -6.00962
lfemur -32.2711 7.1177 -4.59646
ltibia 45.8406
lfoot -3.43162 -1.81785
ltoes -23.4617
1359
root -4.63783 16.9136 -3.75745 4.82892 -3.5848 -0.133458
lowerback 13.2142 -0.816691 -0.736967
upperback 2.66085 -1.06008 2.38937
thorax -4.5458 -0.504802 3.10372
lowerneck -21.2277 -3.02242 -11.2411
upperneck 19.8921 -2.446 7.78109
head 10.0819 -1.07296 4.27415
rclavicle 1.05356e-014 9.14409e-015
rhumerus -28.0598 -2.18457 -77.4882
rradius 111.019
rwrist -3.03242
rhand -24.6293 23.2177
rfingers 7.12502
rthumb 1.86959 -6.75386
lclavicle 1.05356e-014 9.14409e-015
lhumerus 5.34532 -3.8994 79.7933
lradius 120.365
lwrist -2.32658
lhand -10.5991 5.14463
lfingers 7.12502
lthumb 15.4067 34.5505
rfemur -12.975 -1.65991 13.2205
rtibia 56.0177
rfoot -18.0915 7.05225
rtoes -17.0613
lfemur -33.0644 6.8914 -4.07762
ltibia 45.854
lfoot -2.8199 -1.13115
ltoes -26.8296
1360
root -4.59985 16.827 -3.73576 5.11317 -3.18376 -0.0299241
lowerback 12.9051 -0.674782 -0.643841
upperback 2.40205 -0.882114 1.90186
thorax -4.66791 -0.416695 2.50489
lowerneck -20.9613 -3.12559 -11.5905
upperneck 20.0253 -2.55238 7.94353
head 10.1002 -1.13676 4.3787
rclavicle -1.09332e-014 6.36111e-015
rhumerus -28.221 -2.10099 -77.5979
rradius 111.07
rwrist -3.20595
rhand -24.632 22.9765
rfingers 7.12502
rthumb 1.86699 -6.99509
lclavicle -1.09332e-014 6.36111e-015
lhumerus 5.7566 -3.73455 79.4804
lradius 120.152
lwrist -2.70494
lhand -10.8149 5.11949
lfingers 7.12502
lthumb 15.1988 34.5413
rfemur -12.0895 -1.56575 13.6507
rtibia 55.0366
rfoot -22.2431 5.6096
rtoes -20.1527
lfemur -34.0821 6.57817 -3.81838
ltibia 46.3883
lfoot -3.26244 -1.87126
ltoes -27.1249
1361
root -4.55465 16.7253 -3.71914 5.44569 -2.92162 0.0292948
lowerback 11.9589 -0.501007 -0.48419
upperback 2.5567 -0.657194 1.47925
thorax -4.00293 -0.316254 1.91627
lowerneck -20.8517 -3.26481 -12.04
upperneck 19.8138 -2.63531 8.06775
head 10.0232 -1.19337 4.4806
rclavicle 3.77691e-015 -1.15295e-014
rhumerus -27.6301 -2.07128 -77.6029
rradius 111.044
rwrist -3.60652
rhand -24.6313 22.7353
rfingers 7.12502
rthumb 1.86764 -7.23629
lclavicle 3.77691e-015 -1.15295e-014
lhumerus 6.73993 -3.3648 79.2579
lradius 120.023
lwrist -3.11598
lhand -10.5403 5.26933
lfingers 7.12502
lthumb 15.4633 34.6709
rfemur -11.7333 -1.4886 14.0619
rtibia 54.5432
rfoot -25.792 4.36568
rtoes -21.7904
lfemur -35.2288 6.28732 -3.55104
ltibia 47.4114
lfoot -3.71701 -3.31391
ltoes -28.5404
1362
root -4.50023 16.6006 -3.70976 5.732 -2.94987 0.141528
lowerback 11.5156 -0.258833 -0.277627
upperback 2.40847 -0.333426 0.996987
thorax -3.92965 -0.159608 1.24394
lowerneck -20.4632 -3.27158 -12.341
upperneck 19.6644 -2.58708 8.04969
head 9.89858 -1.20027 4.52546
rclavicle -5.46658e-015 3.57812e-015
rhumerus -27.4802 -1.95716 -77.5451
rradius 111.144
rwrist -4.17026
rhand -24.4842 22.4989
rfingers 7.12502
rthumb 2.00972 -7.47139
lclavicle -5.46658e-015 3.57812e-015
lhumerus 7.16768 -3.11165 79.0468
lradius 120.151
lwrist -3.41195
lhand -10.0673 5.71966
lfingers 7.12502
lthumb 15.9189 35.0854
rfemur -11.7336 -1.27152 14.2229
rtibia 54.4704
rfoot -28.5782 3.15726
rtoes -20.6508
lfemur -35.9874 6.61105 -3.59648
ltibia 48.9015
lfoot -4.92795 -5.04894
ltoes -32.6372
1363
root -4.44155 16.4956 -3.70019 5.82798 -3.32319 0.377554
lowerback 11.792 0.134934 -0.388075
upperback 1.9821 0.15895 0.623688
thorax -4.53851 0.086921 0.845506
lowerneck -19.9899 -3.24546 -12.5969
upperneck 19.745 -2.47099 7.78583
head 9.82937 -1.20606 4.48878
rclavicle 5.41688e-015 1.21259e-014
rhumerus -27.7348 -1.64279 -77.2145
rradius 111.264
rwrist -4.66383
rhand -24.4287 22.3697
rfingers 7.12502
rthumb 2.06336 -7.60008
lclavicle 5.41688e-015 1.21259e-014
lhumerus 6.88501 -2.94052 79.1109
lradius 120.415
lwrist -3.61597
lhand -9.93277 5.88973
lfingers 7.12502
lthumb 16.0484 35.2451
rfemur -11.8624 -0.857093 14.0343
rtibia 54.7229
rfoot -31.1957 0.438861
rtoes -24.0954
lfemur -36.6603 7.28193 -3.93277
ltibia 50.5556
lfoot -6.27053 -6.06902
ltoes -32.8314
1364
root -4.37873 16.4049 -3.69768 5.76442 -3.7144 0.571532
lowerback 12.1509 0.490754 -0.372346
upperback 1.73742 0.610911 0.229966
thorax -4.99698 0.308002 0.351736
lowerneck -19.5863 -3.20094 -12.479
upperneck 19.6193 -2.37053 7.26877
head 9.69373 -1.21317 4.29096
rclavicle 5.51627e-015 -1.23246e-014
rhumerus -27.6502 -1.33724 -77.0904
rradius 111.309
rwrist -5.06483
rhand -24.3013 22.175
rfingers 7.12502
rthumb 2.18639 -7.79354
lclavicle 5.51627e-015 -1.23246e-014
lhumerus 6.72592 -2.77026 79.1045
lradius 120.514
lwrist -3.74607
lhand -10.4869 5.63834
lfingers 7.12502
lthumb 15.5148 35.0359
rfemur -12.09 -0.432962 13.7519
rtibia 55.2756
rfoot -32.9127 -0.91602
rtoes -24.682
lfemur -37.4056 8.03565 -4.33056
ltibia 52.2392
lfoot -7.29921 -6.6753
ltoes -32.8609
1365
root -4.31416 16.3113 -3.70402 5.69899 -4.00134 0.654118
lowerback 12.4801 0.759552 -0.238052
upperback 1.64664 0.965855 -0.0790305
thorax -5.2704 0.477251 -0.110343
lowerneck -19.5337 -3.096 -12.1089
upperneck 19.4216 -2.15621 6.50166
head 9.58009 -1.16898 3.97827
rclavicle -7.40473e-015 -2.98177e-016
rhumerus -27.17 -1.03089 -76.9633
rradius 111.235
rwrist -5.26506
rhand -24.1234 21.8929
rfingers 7.12502
rthumb 2.35813 -8.07381
lclavicle -7.40473e-015 -2.98177e-016
lhumerus 6.78895 -2.43622 79.0881
lradius 120.677
lwrist -3.55791
lhand -10.7686 5.43523
lfingers 7.12502
lthumb 15.2434 34.8536
rfemur -12.5008 -0.168903 13.5183
rtibia 56.0849
rfoot -33.9494 -1.31627
rtoes -24.381
lfemur -38.2768 8.73101 -4.67996
ltibia 53.7781
lfoot -8.01756 -7.11749
ltoes -30.0785
1366
root -4.24908 16.2194 -3.71451 5.64939 -4.24107 0.855425
lowerback 12.8026 0.984037 -0.286827
upperback 1.58689 1.2402 -0.320696
thorax -5.5079 0.610057 -0.389012
lowerneck -19.786 -3.02653 -12.1774
upperneck 19.3696 -1.90568 6.08752
head 9.5808 -1.10021 3.8751
rclavicle 5.26779e-015 7.25564e-015
rhumerus -26.4993 -0.649336 -76.6835
rradius 111.058
rwrist -5.15694
rhand -24.2013 21.6784
rfingers 7.12502
rthumb 2.28297 -8.28916
lclavicle 5.26779e-015 7.25564e-015
lhumerus 6.77316 -1.89454 79.1507
lradius 120.989
lwrist -3.30788
lhand -10.5163 5.39112
lfingers 7.12502
lthumb 15.4864 34.7909
rfemur -13.0226 -0.128673 13.069
rtibia 57.1676
rfoot -34.6526 -1.76543
rtoes -26.0108
lfemur -39.0532 9.31726 -5.22984
ltibia 55.1541
lfoot -8.80881 -7.10454
ltoes -28.3271
1367
root -4.18853 16.1328 -3.72264 5.54898 -4.44061 1.17618
lowerback 13.101 1.18375 -0.530885
upperback 1.56723 1.45353 -0.547095
thorax -5.69349 0.71699 -0.533084
lowerneck -20.0774 -3.00344 -12.5919
upperneck 19.4185 -1.67612 5.96177
head 9.63322 -1.03684 3.93178
rclavicle 4.89507e-015 -1.59028e-015
rhumerus -25.8316 -0.255482 -76.428
rradius 110.841
rwrist -4.85952
rhand -24.4317 21.6156
rfingers 7.12502
rthumb 2.06041 -8.35415
lclavicle 4.89507e-015 -1.59028e-015
lhumerus 6.64654 -1.32541 79.2238
lradius 121.349
lwrist -3.26696
lhand -10.5593 5.22236
lfingers 7.12502
lthumb 15.445 34.6253
rfemur -13.5081 -0.217819 12.4059
rtibia 58.4519
rfoot -35.3099 -2.32197
rtoes -28.1565
lfemur -39.6245 9.80435 -5.91768
ltibia 56.3727
lfoot -9.59386 -6.9192
ltoes -27.1293
1368
root -4.14087 16.0594 -3.7246 5.33141 -4.70227 1.48652
lowerback 13.4289 1.38973 -0.973984
upperback 1.62954 1.64719 -0.711938
thorax -5.81622 0.819315 -0.498436
lowerneck -20.3608 -2.92612 -12.8237
upperneck 19.3608 -1.38865 5.68187
head 9.63731 -0.94827 3.9088
rclavicle 4.5969e-015 2.6339e-015
rhumerus -25.1499 0.156355 -76.2607
rradius 110.531
rwrist -4.47088
rhand -24.6633 21.7317
rfingers 7.12502
rthumb 1.83676 -8.2401
lclavicle 4.5969e-015 2.6339e-015
lhumerus 6.51294 -0.752905 79.2335
lradius 121.655
lwrist -3.31629
lhand -10.7718 5.08637
lfingers 7.12502
lthumb 15.2403 34.505
rfemur -13.9811 -0.11486 11.726
rtibia 59.7485
rfoot -35.6371 -2.59703
rtoes -29.3135
lfemur -39.8695 10.3377 -6.5505
ltibia 57.3723
lfoot -10.4185 -6.83316
ltoes -26.3499
1369
root -4.09975 15.9975 -3.7187 5.02007 -4.8649 1.64928
lowerback 13.695 1.55218 -1.32611
upperback 1.76576 1.79941 -0.813807
thorax -5.82689 0.899843 -0.439843
lowerneck -20.5401 -2.84297 -12.8602
upperneck 19.2016 -1.13831 5.27635
head 9.58866 -0.875001 3.80104
rclavicle -3.7502e-014 -6.65929e-015
rhumerus -24.533 0.484621 -76.1273
rradius 110.251
rwrist -4.21701
rhand -24.7213 21.9379
rfingers 7.12502
rthumb 1.78069 -8.03444
lclavicle -3.7502e-014 -6.65929e-015
lhumerus 6.30829 -0.248356 79.152
lradius 121.93
lwrist -3.2968
lhand -10.8568 5.13248
lfingers 7.12502
lthumb 15.1584 34.5573
rfemur -14.2194 0.0713914 11.2319
rtibia 60.8297
rfoot -35.7127 -2.37113
rtoes -29.8073
lfemur -39.8959 10.8464 -7.00709
ltibia 58.1889
lfoot -11.3764 -6.74585
ltoes -26.8908
